# Blender v2.77 (sub 0) OBJ File: ''
# www.blender.org
mtllib pinetree.mtl
o SapinHiver.015_Cylinder.034
v 0.000333 1.069883 -0.738014
v -0.128681 4.978201 -0.031873
v 0.492898 1.184512 -0.501514
v -0.121333 4.978516 -0.029159
v 0.771581 1.105872 -0.024183
v -0.118056 4.978697 -0.022039
v 0.530746 1.192667 0.471960
v -0.120770 4.978637 -0.014685
v 0.058103 1.082331 0.747870
v -0.127885 4.978373 -0.011404
v -0.441969 1.153665 0.510105
v -0.135233 4.978057 -0.014118
v -0.713145 1.046342 0.034040
v -0.138510 4.977877 -0.021237
v -0.479816 1.145510 -0.463369
v -0.135796 4.977936 -0.028592
v -0.020927 1.705690 -0.630070
v -0.042187 2.341496 -0.522127
v -0.063447 2.977304 -0.414184
v -0.084706 3.613111 -0.306241
v -0.105966 4.248918 -0.198297
v 0.011607 4.347191 -0.140963
v 0.107866 3.714655 -0.213073
v 0.204124 3.082119 -0.285183
v 0.300382 2.449583 -0.357293
v 0.396640 1.817047 -0.429404
v 0.082568 4.257715 -0.023799
v 0.220370 3.627347 -0.023876
v 0.358173 2.996978 -0.023953
v 0.495975 2.366609 -0.024030
v 0.633778 1.736241 -0.024107
v 0.020859 4.349184 0.097006
v 0.122837 3.717881 0.171997
v 0.224814 3.086577 0.246987
v 0.326792 2.455274 0.321978
v 0.428769 1.823970 0.396969
v -0.091844 4.251960 0.164932
v -0.061855 3.618034 0.281519
v -0.031865 2.984108 0.398107
v -0.001876 2.350183 0.514695
v 0.028113 1.716256 0.631283
v -0.216924 4.339650 0.106331
v -0.261933 3.702453 0.187086
v -0.306942 3.065256 0.267840
v -0.351951 2.428059 0.348595
v -0.396960 1.790862 0.429350
v -0.280378 4.243163 -0.009566
v -0.366932 3.603798 -0.000845
v -0.453485 2.964434 0.007876
v -0.540038 2.325070 0.016598
v -0.626591 1.685706 0.025319
v -0.226176 4.337657 -0.131638
v -0.276904 3.699227 -0.197984
v -0.327632 3.060798 -0.264330
v -0.378360 2.422369 -0.330677
v -0.429088 1.783939 -0.397023
v -0.107679 4.218269 -0.273312
v 0.060144 4.318734 -0.191969
v 0.158940 4.230711 -0.026542
v 0.073228 4.321553 0.144559
v -0.087708 4.222572 0.240355
v -0.263038 4.308071 0.157746
v -0.354327 4.210131 -0.006415
v -0.276121 4.305251 -0.178782
v -0.088401 3.582035 -0.432235
v 0.188477 3.687257 -0.298787
v 0.347682 3.602385 -0.028617
v 0.209877 3.691868 0.251640
v -0.055737 3.589074 0.407922
v -0.340121 3.669815 0.273208
v -0.491820 3.568724 0.004304
v -0.361521 3.665204 -0.277219
v -0.068677 2.945897 -0.579678
v 0.309587 3.055541 -0.397789
v 0.524953 2.973598 -0.030241
v 0.338718 3.061818 0.351495
v -0.024212 2.955478 0.564009
v -0.409982 3.031798 0.380855
v -0.617842 2.927778 0.014573
v -0.439113 3.025521 -0.368429
v -0.049254 2.309695 -0.734861
v 0.435567 2.423985 -0.502061
v 0.709959 2.345122 -0.032169
v 0.472824 2.432014 0.456222
v 0.007614 2.321948 0.727837
v -0.484712 2.393621 0.493772
v -0.751598 2.286521 0.025146
v -0.521969 2.385593 -0.464512
v -0.029896 1.673478 -0.891723
v 0.562603 1.792465 -0.607477
v 0.896642 1.716714 -0.034163
v 0.608072 1.802262 0.562006
v 0.039506 1.688432 0.893344
v -0.560499 1.755408 0.607831
v -0.887032 1.645197 0.035784
v -0.605968 1.745611 -0.561651
v 0.680561 1.160645 -0.703068
v 1.068908 1.087727 -0.035591
v 0.733506 1.172054 0.658707
v 0.070836 1.054795 1.044421
v -0.627208 1.117495 0.712068
v -1.008049 1.004451 0.045857
v -0.680153 1.106087 -0.649708
v -0.009977 1.037382 -1.034156
v 0.065009 -0.027094 -0.210338
v 0.014079 1.234730 -0.218929
v 0.224942 -0.020236 -0.151264
v 0.174011 1.241587 -0.159855
v 0.296261 -0.016302 0.003697
v 0.245331 1.245521 -0.004893
v 0.237190 -0.017597 0.163772
v 0.186260 1.244226 0.155182
v 0.082331 -0.023361 0.235191
v 0.031401 1.238462 0.226600
v -0.077601 -0.030218 0.176117
v -0.128531 1.231605 0.167526
v -0.148920 -0.034152 0.021155
v -0.199850 1.227671 0.012565
v -0.089849 -0.032858 -0.138920
v -0.140779 1.228965 -0.147510
vn 0.3462 0.0076 -0.9381
vn 0.9076 0.0338 -0.4186
vn 0.9373 0.0402 0.3462
vn 0.4180 0.0231 0.9082
vn -0.3462 -0.0076 0.9381
vn -0.9076 -0.0338 0.4186
vn -0.0403 0.9992 -0.0068
vn -0.4180 -0.0231 -0.9082
vn -0.9373 -0.0402 -0.3462
vn 0.0403 -0.9992 0.0068
vn 0.2675 0.2990 -0.9160
vn 0.8769 0.3274 -0.3520
vn 0.9013 0.3327 0.2774
vn 0.3376 0.3141 0.8873
vn -0.2913 0.2889 0.9120
vn -0.9006 0.2604 0.3480
vn -0.3614 0.2738 -0.8913
vn -0.9251 0.2552 -0.2814
vn 0.2922 0.4863 -0.8235
vn 0.2936 0.4542 -0.8411
vn 0.2975 0.4056 -0.8643
vn 0.2960 0.3549 -0.8868
vn 0.2800 0.3094 -0.9088
vn 0.7734 0.5088 -0.3780
vn 0.7925 0.4775 -0.3794
vn 0.8177 0.4298 -0.3828
vn 0.8428 0.3804 -0.3807
vn 0.8682 0.3368 -0.3643
vn 0.8001 0.5145 0.3083
vn 0.8193 0.4833 0.3087
vn 0.8447 0.4357 0.3109
vn 0.8696 0.3862 0.3077
vn 0.8937 0.3423 0.2901
vn 0.3549 0.4999 0.7900
vn 0.3578 0.4680 0.8080
vn 0.3634 0.4198 0.8317
vn 0.3637 0.3695 0.8551
vn 0.3495 0.3243 0.8790
vn -0.3309 0.4724 0.8169
vn -0.3298 0.4405 0.8350
vn -0.3297 0.3920 0.8589
vn -0.3241 0.3419 0.8821
vn -0.3045 0.2981 0.9047
vn -0.8121 0.4499 0.3715
vn -0.8286 0.4172 0.3733
vn -0.8499 0.3677 0.3774
vn -0.8709 0.3164 0.3759
vn -0.8928 0.2707 0.3602
vn -0.3936 0.4588 -0.7966
vn -0.3939 0.4267 -0.8141
vn -0.3956 0.3778 -0.8371
vn -0.3918 0.3273 -0.8598
vn -0.3740 0.2831 -0.8832
vn -0.8388 0.4442 -0.3148
vn -0.8554 0.4114 -0.3148
vn -0.8769 0.3619 -0.3163
vn -0.8977 0.3107 -0.3124
vn -0.9182 0.2652 -0.2943
vn 0.3200 -0.8065 0.4972
vn -0.4789 -0.8438 -0.2423
vn -0.4581 -0.8393 0.2928
vn 0.2810 -0.8149 -0.5069
vn -0.2537 -0.8363 -0.4860
vn 0.5452 -0.7991 0.2535
vn -0.2147 -0.8279 0.5181
vn 0.5244 -0.8035 -0.2816
vn 0.2379 -0.9106 0.3379
vn -0.3089 -0.9361 -0.1682
vn -0.2943 -0.9330 0.2073
vn 0.2116 -0.9163 -0.3401
vn -0.1636 -0.9313 -0.3254
vn 0.3832 -0.9058 0.1807
vn -0.1372 -0.9256 0.3527
vn 0.3686 -0.9089 -0.1947
vn 0.1868 -0.9461 0.2646
vn -0.2302 -0.9656 -0.1213
vn -0.2194 -0.9632 0.1550
vn 0.1663 -0.9505 -0.2624
vn -0.1098 -0.9616 -0.2516
vn 0.3072 -0.9421 0.1343
vn -0.0893 -0.9572 0.2754
vn 0.2964 -0.9444 -0.1420
vn 0.1577 -0.9646 0.2114
vn -0.1740 -0.9801 -0.0956
vn -0.1655 -0.9782 0.1252
vn 0.1414 -0.9681 -0.2068
vn -0.0793 -0.9770 -0.1982
vn 0.2524 -0.9615 0.1089
vn -0.0630 -0.9735 0.2200
vn 0.2438 -0.9633 -0.1120
vn 0.1382 -0.9748 0.1752
vn -0.1361 -0.9876 -0.0786
vn -0.1289 -0.9860 0.1054
vn 0.1248 -0.9777 -0.1691
vn -0.0591 -0.9850 -0.1619
vn 0.2152 -0.9722 0.0919
vn -0.0457 -0.9822 0.1824
vn 0.2080 -0.9738 -0.0921
vn 0.1228 -0.9803 0.1548
vn -0.1143 -0.9913 -0.0647
vn -0.1083 -0.9900 0.0899
vn 0.1111 -0.9828 -0.1474
vn -0.0434 -0.9890 -0.1414
vn 0.1938 -0.9779 0.0781
vn -0.0316 -0.9865 0.1609
vn 0.1877 -0.9792 -0.0765
usemtl upper
s off
f 105//1 106//1 108//1 107//1
f 107//2 108//2 110//2 109//2
f 109//3 110//3 112//3 111//3
f 111//4 112//4 114//4 113//4
f 113//5 114//5 116//5 115//5
f 115//6 116//6 118//6 117//6
f 108//7 106//7 120//7 118//7 116//7 114//7 112//7 110//7
f 119//8 120//8 106//8 105//8
f 117//9 118//9 120//9 119//9
f 105//10 107//10 109//10 111//10 113//10 115//10 117//10 119//10
usemtl bottom
f 57//11 2//11 4//11 58//11
f 58//12 4//12 6//12 59//12
f 59//13 6//13 8//13 60//13
f 60//14 8//14 10//14 61//14
f 61//15 10//15 12//15 62//15
f 62//16 12//16 14//16 63//16
f 64//17 16//17 2//17 57//17
f 63//18 14//18 16//18 64//18
f 1//10 3//10 5//10 7//10 9//10 11//10 13//10 15//10
f 4//7 2//7 16//7 14//7 12//7 10//7 8//7 6//7
f 104//19 17//19 26//19 97//19
f 89//20 18//20 25//20 90//20
f 81//21 19//21 24//21 82//21
f 73//22 20//22 23//22 74//22
f 65//23 21//23 22//23 66//23
f 97//24 26//24 31//24 98//24
f 90//25 25//25 30//25 91//25
f 82//26 24//26 29//26 83//26
f 74//27 23//27 28//27 75//27
f 66//28 22//28 27//28 67//28
f 98//29 31//29 36//29 99//29
f 91//30 30//30 35//30 92//30
f 83//31 29//31 34//31 84//31
f 75//32 28//32 33//32 76//32
f 67//33 27//33 32//33 68//33
f 99//34 36//34 41//34 100//34
f 92//35 35//35 40//35 93//35
f 84//36 34//36 39//36 85//36
f 76//37 33//37 38//37 77//37
f 68//38 32//38 37//38 69//38
f 100//39 41//39 46//39 101//39
f 93//40 40//40 45//40 94//40
f 85//41 39//41 44//41 86//41
f 77//42 38//42 43//42 78//42
f 69//43 37//43 42//43 70//43
f 101//44 46//44 51//44 102//44
f 94//45 45//45 50//45 95//45
f 86//46 44//46 49//46 87//46
f 78//47 43//47 48//47 79//47
f 70//48 42//48 47//48 71//48
f 103//49 56//49 17//49 104//49
f 96//50 55//50 18//50 89//50
f 88//51 54//51 19//51 81//51
f 80//52 53//52 20//52 73//52
f 72//53 52//53 21//53 65//53
f 102//54 51//54 56//54 103//54
f 95//55 50//55 55//55 96//55
f 87//56 49//56 54//56 88//56
f 79//57 48//57 53//57 80//57
f 71//58 47//58 52//58 72//58
f 21//59 57//59 58//59 22//59
f 22//60 58//60 59//60 27//60
f 27//61 59//61 60//61 32//61
f 32//62 60//62 61//62 37//62
f 37//63 61//63 62//63 42//63
f 42//64 62//64 63//64 47//64
f 52//65 64//65 57//65 21//65
f 47//66 63//66 64//66 52//66
f 20//67 65//67 66//67 23//67
f 23//68 66//68 67//68 28//68
f 28//69 67//69 68//69 33//69
f 33//70 68//70 69//70 38//70
f 38//71 69//71 70//71 43//71
f 43//72 70//72 71//72 48//72
f 53//73 72//73 65//73 20//73
f 48//74 71//74 72//74 53//74
f 19//75 73//75 74//75 24//75
f 24//76 74//76 75//76 29//76
f 29//77 75//77 76//77 34//77
f 34//78 76//78 77//78 39//78
f 39//79 77//79 78//79 44//79
f 44//80 78//80 79//80 49//80
f 54//81 80//81 73//81 19//81
f 49//82 79//82 80//82 54//82
f 18//83 81//83 82//83 25//83
f 25//84 82//84 83//84 30//84
f 30//85 83//85 84//85 35//85
f 35//86 84//86 85//86 40//86
f 40//87 85//87 86//87 45//87
f 45//88 86//88 87//88 50//88
f 55//89 88//89 81//89 18//89
f 50//90 87//90 88//90 55//90
f 17//91 89//91 90//91 26//91
f 26//92 90//92 91//92 31//92
f 31//93 91//93 92//93 36//93
f 36//94 92//94 93//94 41//94
f 41//95 93//95 94//95 46//95
f 46//96 94//96 95//96 51//96
f 56//97 96//97 89//97 17//97
f 51//98 95//98 96//98 56//98
f 1//99 104//99 97//99 3//99
f 3//100 97//100 98//100 5//100
f 5//101 98//101 99//101 7//101
f 7//102 99//102 100//102 9//102
f 9//103 100//103 101//103 11//103
f 11//104 101//104 102//104 13//104
f 15//105 103//105 104//105 1//105
f 13//106 102//106 103//106 15//106
