# Blender v2.77 (sub 0) OBJ File: 'BlenderNatureAsset.blend'
# www.blender.org
mtllib stone.mtl
o caillou1_Icosphere
v 0.000000 0.004378 0.034768
v 0.265360 0.007097 0.209495
v -0.091761 0.004378 0.317485
v -0.386806 -0.013677 -0.002276
v -0.091761 0.004378 -0.247948
v 0.240238 0.004378 -0.139959
v 0.052563 0.256624 0.317485
v -0.327913 0.243445 0.209495
v -0.259852 0.247658 -0.212296
v 0.095606 0.257732 -0.290857
v 0.384078 0.287728 0.039837
v 0.032601 0.402345 0.125118
v -0.053935 0.004378 0.200943
v 0.142704 0.004540 0.137469
v 0.087272 0.004378 0.303646
v 0.306922 0.007031 0.034768
v 0.141207 0.004378 -0.067933
v -0.179073 0.004378 0.034768
v -0.285103 0.004378 0.200944
v -0.053935 0.004378 -0.131407
v -0.261333 -0.010131 -0.161176
v 0.087272 0.004378 -0.234110
v 0.388972 0.123812 0.139167
v 0.355265 0.120249 -0.066158
v -0.027065 0.099240 0.367122
v 0.206926 0.110396 0.303648
v -0.411525 0.101708 0.122261
v -0.263286 0.099239 0.303648
v -0.206625 0.103122 -0.276696
v -0.420914 0.074500 -0.138964
v 0.195145 0.109121 -0.234112
v 0.002655 0.109104 -0.321647
v 0.268316 0.294715 0.202672
v -0.201340 0.242997 0.303646
v -0.331680 0.275400 0.017428
v -0.076296 0.283783 -0.332808
v 0.255910 0.292794 -0.129796
v 0.038770 0.400453 0.233928
v 0.215961 0.393900 0.068198
v -0.160482 0.374364 0.159063
v -0.131039 0.361001 -0.091341
v 0.062080 0.368100 -0.160320
vn 0.0009 -1.0000 0.0003
vn 0.0181 -0.9998 0.0047
vn 0.0000 -1.0000 -0.0000
vn 0.7264 -0.6651 0.1731
vn 0.0668 -0.4980 0.8646
vn -0.7025 -0.5862 0.4036
vn -0.3259 -0.5934 -0.7360
vn 0.4613 -0.4750 -0.7494
vn 0.6563 -0.2707 0.7043
vn -0.2465 -0.3120 0.9175
vn -0.9598 -0.2736 0.0630
vn -0.1743 -0.4567 -0.8724
vn 0.7035 -0.2831 -0.6519
vn 0.3377 0.4968 0.7995
vn -0.4059 0.7306 0.5491
vn -0.4930 0.8320 -0.2546
vn 0.2591 0.7693 -0.5839
vn 0.4647 0.8231 -0.3265
vn 0.0006 -1.0000 -0.0008
vn 0.0179 -0.9998 0.0050
vn 0.0086 -0.9999 0.0119
vn 0.0156 -0.9999 0.0007
vn 0.0006 -1.0000 0.0008
vn 0.0777 -0.9957 0.0496
vn 0.0732 -0.9970 -0.0237
vn 0.0629 -0.9969 0.0474
vn 0.0794 -0.9960 0.0404
vn 0.9847 -0.0678 -0.1605
vn 0.8630 -0.4873 -0.1332
vn 0.7647 -0.5789 -0.2831
vn 0.2501 0.1739 0.9525
vn 0.2632 -0.2970 0.9179
vn 0.4178 -0.4715 0.7766
vn -0.7721 0.0666 0.6319
vn -0.6950 -0.4485 0.5619
vn -0.4014 -0.6287 0.6660
vn -0.5488 0.1632 -0.8199
vn -0.3961 -0.5549 -0.7316
vn -0.4731 -0.7894 -0.3912
vn 0.4129 -0.0701 -0.9081
vn 0.3808 -0.3922 -0.8373
vn 0.0610 -0.6106 -0.7895
vn 0.3954 0.3365 0.8546
vn 0.6511 0.1862 0.7358
vn 0.7715 0.3464 0.5336
vn -0.5775 0.2489 0.7775
vn -0.2579 0.1111 0.9598
vn -0.0691 0.3317 0.9409
vn -0.7582 0.5754 -0.3066
vn -0.9109 0.4126 -0.0102
vn -0.8818 0.4622 0.0942
vn 0.2437 0.0483 -0.9686
vn -0.2033 -0.1537 -0.9670
vn -0.5633 0.1542 -0.8117
vn 0.7790 0.2341 -0.5816
vn 0.7098 0.1554 -0.6870
vn 0.6771 0.1811 -0.7133
vn 0.0505 0.9986 0.0145
vn 0.4259 0.7994 0.4238
vn 0.5415 0.7634 0.3522
vn -0.1390 0.9900 0.0251
vn -0.3180 0.7447 0.5868
vn -0.0738 0.4957 0.8654
vn -0.1552 0.9853 -0.0708
vn -0.4354 0.8948 -0.0989
vn -0.5821 0.8001 0.1445
vn -0.0817 0.9885 -0.1270
vn -0.1529 0.9307 -0.3323
vn -0.4022 0.8417 -0.3603
vn 0.0090 0.9929 -0.1182
vn 0.3866 0.8506 -0.3564
vn 0.3774 0.7527 -0.5395
usemtl Material.004
s off
f 1//1 14//1 13//1
f 2//2 14//2 16//2
f 1//3 13//3 18//3
f 1//3 18//3 20//3
f 1//3 20//3 17//3
f 2//4 16//4 23//4
f 3//5 15//5 25//5
f 4//6 19//6 27//6
f 5//7 21//7 29//7
f 6//8 22//8 31//8
f 2//9 23//9 26//9
f 3//10 25//10 28//10
f 4//11 27//11 30//11
f 5//12 29//12 32//12
f 6//13 31//13 24//13
f 7//14 33//14 38//14
f 8//15 34//15 40//15
f 9//16 35//16 41//16
f 10//17 36//17 42//17
f 11//18 37//18 39//18
f 13//3 15//3 3//3
f 13//19 14//19 15//19
f 14//20 2//20 15//20
f 16//21 17//21 6//21
f 16//22 14//22 17//22
f 14//23 1//23 17//23
f 18//24 19//24 4//24
f 18//3 13//3 19//3
f 13//3 3//3 19//3
f 20//25 21//25 5//25
f 20//26 18//26 21//26
f 18//27 4//27 21//27
f 17//3 22//3 6//3
f 17//3 20//3 22//3
f 20//3 5//3 22//3
f 23//28 24//28 11//28
f 23//29 16//29 24//29
f 16//30 6//30 24//30
f 25//31 26//31 7//31
f 25//32 15//32 26//32
f 15//33 2//33 26//33
f 27//34 28//34 8//34
f 27//35 19//35 28//35
f 19//36 3//36 28//36
f 29//37 30//37 9//37
f 29//38 21//38 30//38
f 21//39 4//39 30//39
f 31//40 32//40 10//40
f 31//41 22//41 32//41
f 22//42 5//42 32//42
f 26//43 33//43 7//43
f 26//44 23//44 33//44
f 23//45 11//45 33//45
f 28//46 34//46 8//46
f 28//47 25//47 34//47
f 25//48 7//48 34//48
f 30//49 35//49 9//49
f 30//50 27//50 35//50
f 27//51 8//51 35//51
f 32//52 36//52 10//52
f 32//53 29//53 36//53
f 29//54 9//54 36//54
f 24//55 37//55 11//55
f 24//56 31//56 37//56
f 31//57 10//57 37//57
f 38//58 39//58 12//58
f 38//59 33//59 39//59
f 33//60 11//60 39//60
f 40//61 38//61 12//61
f 40//62 34//62 38//62
f 34//63 7//63 38//63
f 41//64 40//64 12//64
f 41//65 35//65 40//65
f 35//66 8//66 40//66
f 42//67 41//67 12//67
f 42//68 36//68 41//68
f 36//69 9//69 41//69
f 39//70 42//70 12//70
f 39//71 37//71 42//71
f 37//72 10//72 42//72
