<?xml version="1.0" encoding="UTF-8"?>
<svg width="33px" height="31px" viewBox="0 0 33 31" version="1.1" xmlns="http://www.w3.org/2000/svg" xmlns:xlink="http://www.w3.org/1999/xlink">
    <!-- Generator: Sketch 41.2 (35397) - http://www.bohemiancoding.com/sketch -->
    <title>Page 1</title>
    <desc>Created with Sketch.</desc>
    <defs></defs>
    <g id="Page-2" stroke="none" stroke-width="1" fill="none" fill-rule="evenodd" opacity="0.900000036">
        <path d="M10.5,7.19540072 C10.5,7.19540072 16.3197,2.29460072 18.8491,0.164600718 C19.0574,-0.0107992824 19.3484,-0.0494992824 19.5953,0.0653007176 C19.8421,0.180200718 20,0.427800718 20,0.700000718 L20,29.6908007 C20,29.9631007 19.8421,30.2106007 19.5953,30.3255007 C19.3484,30.4403007 19.0574,30.4016007 18.8491,30.2262007 C16.3197,28.0962007 10.5,23.1954007 10.5,23.1954007 L2,23.1954007 C1.4696,23.1954007 0.9609,22.9847007 0.5858,22.6096007 C0.2107,22.2346007 0.0001,21.7258007 0,21.1954007 L0,9.19540072 C0.0001,8.66500072 0.2107,8.15630072 0.5858,7.78120072 C0.9609,7.40610072 1.4696,7.19540072 2,7.19540072 L10.5,7.19540072 Z M23,2.52920072 C22.9996,2.19090072 23.1704,1.87530072 23.4538,1.69050072 C23.7373,1.50570072 24.0949,1.47670072 24.4044,1.61350072 C29.4807,4.02980072 33,9.20480072 33,15.1954007 C33,21.1860007 29.4807,26.3610007 24.3985,28.7640007 C24.0934,28.8988007 23.7409,28.8702007 23.4614,28.6882007 C23.182,28.5061007 23.0135,28.1951007 23.0135,27.8616007 C23,27.2981007 23,26.6651007 23,26.1375007 C23.0003,25.4513007 23.3523,24.8132007 23.9325,24.4470007 C26.9817,22.4975007 29,19.0803007 29,15.1954007 C29,11.3105007 26.9817,7.89330072 23.9374,5.93600072 C23.36,5.57140072 23.0099,4.93620072 23.0099,4.25330072 C23,3.72570072 23,3.09270072 23,2.52920072 Z M23,10.3407007 C22.9997,10.0934007 23.1513,9.87130072 23.3816,9.78120072 C23.6119,9.69120072 23.8739,9.75170072 24.0414,9.93370072 C25.2574,11.3482007 26,13.1858007 26,15.1954007 C26,17.2050007 25.2574,19.0426007 24.0319,20.4483007 C23.8679,20.6262007 23.6116,20.6853007 23.3862,20.5973007 C23.1609,20.5093007 23.0125,20.2921007 23.0125,20.0501007 C23,17.6477007 23,12.7431007 23,10.3407007 Z" id="Page-1" fill="#031E2A"></path>
    </g>
</svg>