<?xml version="1.0" encoding="UTF-8"?>
<svg width="39px" height="31px" viewBox="0 0 39 31" version="1.1" xmlns="http://www.w3.org/2000/svg" xmlns:xlink="http://www.w3.org/1999/xlink">
    <!-- Generator: Sketch 41.2 (35397) - http://www.bohemiancoding.com/sketch -->
    <title>Page 1</title>
    <desc>Created with Sketch.</desc>
    <defs></defs>
    <g id="Page-2" stroke="none" stroke-width="1" fill="none" fill-rule="evenodd" opacity="0.900000036">
        <g id="GAME---play" transform="translate(-40.000000, -131.000000)" fill="#031E2A">
            <path d="M50.5,138.195401 C50.5,138.195401 56.3197,133.294601 58.8491,131.164601 C59.0574,130.989201 59.3484,130.950501 59.5953,131.065301 C59.8421,131.180201 60,131.427801 60,131.700001 L60,160.690801 C60,160.963101 59.8421,161.210601 59.5953,161.325501 C59.3484,161.440301 59.0574,161.401601 58.8491,161.226201 C56.3197,159.096201 50.5,154.195401 50.5,154.195401 L42,154.195401 C41.4696,154.195401 40.9609,153.984701 40.5858,153.609601 C40.2107,153.234601 40.0001,152.725801 40,152.195401 L40,140.195401 C40.0001,139.665001 40.2107,139.156301 40.5858,138.781201 C40.9609,138.406101 41.4696,138.195401 42,138.195401 L50.5,138.195401 Z M71,142.659901 C71,142.659901 73.3181,140.341801 74.8891,138.770801 C75.2642,138.395701 75.7729,138.185001 76.3033,138.185001 C76.8337,138.185001 77.3424,138.395701 77.7175,138.770801 C77.9504,139.003601 78.1918,139.245001 78.4246,139.477901 C78.7997,139.853001 79.0104,140.361701 79.0104,140.892101 C79.0104,141.422501 78.7997,141.931201 78.4246,142.306301 C76.8536,143.877301 74.5355,146.195401 74.5355,146.195401 C74.5355,146.195401 76.8536,148.513501 78.4246,150.084501 C78.7997,150.459601 79.0104,150.968301 79.0104,151.498701 C79.0104,152.029101 78.7997,152.537801 78.4246,152.912901 C78.1918,153.145801 77.9504,153.387201 77.7175,153.620001 C77.3424,153.995101 76.8337,154.205801 76.3033,154.205801 C75.7729,154.205801 75.2642,153.995101 74.8891,153.620001 C73.3181,152.049001 71,149.730901 71,149.730901 L67.1109,153.620001 C66.7358,153.995101 66.2271,154.205801 65.6967,154.205801 C65.1663,154.205801 64.6576,153.995101 64.2825,153.620001 C64.0496,153.387201 63.8082,153.145801 63.5754,152.912901 C63.2003,152.537801 62.9896,152.029101 62.9896,151.498701 C62.9896,150.968301 63.2003,150.459601 63.5754,150.084501 C65.1464,148.513501 67.4645,146.195401 67.4645,146.195401 C67.4645,146.195401 65.1464,143.877301 63.5754,142.306301 C63.2003,141.931201 62.9896,141.422501 62.9896,140.892101 C62.9896,140.361701 63.2003,139.853001 63.5754,139.477901 C63.8082,139.245001 64.0496,139.003601 64.2825,138.770801 C64.6576,138.395701 65.1663,138.185001 65.6967,138.185001 C66.2271,138.185001 66.7358,138.395701 67.1109,138.770801 L71,142.659901 Z" id="Page-1"></path>
        </g>
    </g>
</svg>